<svg xmlns="http://www.w3.org/2000/svg" xmlns:xlink="http://www.w3.org/1999/xlink" version="1.1" width="792" height="612" viewBox="0 0 792 612">
<defs>
<clipPath id="clip_0">
<path transform="matrix(1,0,0,-1,0,612)" d="M0 612H792V0H0Z"/>
</clipPath>
</defs>
<g id="layer_1" data-name="Layer 1">
<g clip-path="url(#clip_0)">
<path transform="matrix(1,0,0,-1,359.9746,355.7149)" d="M0 0 2.388-1.78C1.288-3.863-.216-5.463-2.126-6.586-4.035-7.706-6.205-8.268-8.636-8.268-12.223-8.268-15.186-7.083-17.521-4.718-19.858-2.352-21.027 .643-21.027 4.275-21.027 7.921-19.855 10.926-17.511 13.29-15.167 15.656-12.21 16.839-8.636 16.839-6.423 16.839-4.405 16.354-2.582 15.385-.759 14.415 .723 13.033 1.867 11.239L-.628 9.461C-1.382 10.892-2.466 12.014-3.884 12.824-5.301 13.634-6.886 14.039-8.636 14.039-11.326 14.039-13.554 13.117-15.319 11.274-17.084 9.429-17.967 7.095-17.967 4.275-17.967 1.453-17.084-.875-15.319-2.713-13.554-4.548-11.326-5.467-8.636-5.467-6.755-5.467-5.085-5.004-3.623-4.078-2.163-3.152-.955-1.794 0 0" fill="#2b5288"/>
<path transform="matrix(1,0,0,-1,351.3385,339.0146)" d="M0 0C-3.518 0-6.47-1.18-8.776-3.507-11.084-5.834-12.253-8.835-12.253-12.425-12.253-16-11.088-18.992-8.787-21.321-6.488-23.649-3.531-24.829 0-24.829 2.394-24.829 4.56-24.271 6.44-23.168 8.287-22.082 9.769-20.519 10.847-18.52L8.681-16.906C7.731-18.643 6.522-19.984 5.087-20.895 3.608-21.831 1.898-22.306 0-22.306-2.716-22.306-4.997-21.365-6.781-19.509-8.564-17.652-9.469-15.269-9.469-12.425-9.469-9.581-8.564-7.194-6.781-5.332-4.999-3.468-2.716-2.523 0-2.523 1.768-2.523 3.389-2.938 4.821-3.757 6.208-4.549 7.296-5.652 8.055-7.036L10.316-5.425C9.199-3.713 7.744-2.372 5.99-1.437 4.195-.483 2.178 0 0 0M0-25.107C-3.608-25.107-6.63-23.898-8.985-21.515-11.338-19.134-12.53-16.075-12.53-12.425-12.53-8.759-11.334-5.693-8.974-3.312-6.614-.931-3.594 .277 0 .277 2.225 .277 4.283-.218 6.119-1.193 7.954-2.17 9.469-3.581 10.62-5.386L10.69-5.497 7.96-7.443 7.886-7.304C7.148-5.902 6.071-4.789 4.684-3.996 3.295-3.202 1.72-2.8 0-2.8-2.637-2.8-4.853-3.715-6.584-5.522-8.314-7.333-9.192-9.655-9.192-12.425-9.192-15.195-8.314-17.514-6.584-19.318-4.853-21.117-2.637-22.029 0-22.029 1.844-22.029 3.506-21.569 4.939-20.661 6.373-19.752 7.575-18.398 8.514-16.635L8.589-16.493 11.203-18.44 11.147-18.545C10.041-20.639 8.503-22.275 6.58-23.406 4.657-24.534 2.443-25.107 0-25.107" fill="#2b5288"/>
<path transform="matrix(1,0,0,-1,351.3388,339.3608)" d="M0 0C-3.423 0-6.292-1.146-8.532-3.404-10.771-5.664-11.906-8.583-11.906-12.079-11.906-15.559-10.775-18.47-8.541-20.731-6.31-22.991-3.437-24.137 0-24.137 2.331-24.137 4.439-23.594 6.265-22.523 7.976-21.517 9.363-20.088 10.395-18.271L8.789-17.073C7.843-18.694 6.663-19.959 5.272-20.841 3.738-21.813 1.964-22.306 0-22.306-2.813-22.306-5.179-21.329-7.031-19.403-8.881-17.48-9.818-15.015-9.818-12.079-9.818-9.142-8.881-6.674-7.033-4.745-5.18-2.811-2.815-1.83 0-1.83 1.829-1.83 3.508-2.26 4.993-3.109 6.321-3.869 7.386-4.903 8.165-6.186L9.839-4.993C8.782-3.461 7.434-2.252 5.826-1.397 4.081-.47 2.121 0 0 0M0-25.107C-3.705-25.107-6.812-23.864-9.231-21.413-11.651-18.964-12.877-15.823-12.877-12.079-12.877-8.318-11.645-5.17-9.219-2.722-6.792-.273-3.691 .97 0 .97 2.281 .97 4.394 .461 6.281-.541 8.17-1.546 9.728-2.998 10.911-4.854L11.16-5.243 7.837-7.61 7.58-7.119C6.871-5.776 5.841-4.71 4.511-3.951 3.175-3.187 1.658-2.8 0-2.8-2.54-2.8-4.67-3.68-6.332-5.416-8.001-7.158-8.846-9.4-8.846-12.079-8.846-14.756-8.001-16.995-6.333-18.732-4.67-20.459-2.54-21.336 0-21.336 1.777-21.336 3.376-20.894 4.754-20.022 6.136-19.144 7.299-17.834 8.208-16.126L8.474-15.628 11.645-17.994 11.451-18.361C10.316-20.512 8.737-22.193 6.756-23.359 4.779-24.518 2.506-25.107 0-25.107" fill="#2b5288"/>
<path transform="matrix(1,0,0,-1,351.3385,339.4994)" d="M0 0C-3.384 0-6.22-1.131-8.433-3.363-10.647-5.596-11.768-8.482-11.768-11.94-11.768-15.384-10.649-18.262-8.442-20.495-6.238-22.729-3.398-23.86 0-23.86 2.306-23.86 4.391-23.324 6.195-22.265 7.848-21.293 9.201-19.916 10.213-18.17L8.83-17.137C7.886-18.714 6.715-19.952 5.346-20.819 3.79-21.805 1.991-22.306 0-22.306-2.851-22.306-5.251-21.315-7.13-19.36-9.005-17.41-9.956-14.914-9.956-11.94-9.956-8.967-9.007-6.468-7.132-4.511-5.254-2.549-2.853-1.553 0-1.553 1.853-1.553 3.556-1.99 5.062-2.851 6.364-3.597 7.422-4.605 8.204-5.85L9.647-4.821C8.614-3.359 7.307-2.203 5.762-1.381 4.036-.464 2.097 0 0 0M0-24.137C-3.475-24.137-6.382-22.977-8.64-20.69-10.899-18.402-12.045-15.459-12.045-11.94-12.045-8.407-10.895-5.455-8.631-3.169-6.362-.882-3.459 .277 0 .277 2.142 .277 4.125-.199 5.891-1.136 7.515-2 8.882-3.224 9.953-4.776L10.03-4.887 8.123-6.246 8.046-6.119C7.28-4.857 6.231-3.838 4.925-3.09 3.461-2.254 1.804-1.83 0-1.83-2.776-1.83-5.109-2.796-6.934-4.702-8.756-6.605-9.679-9.041-9.679-11.94-9.679-14.84-8.755-17.272-6.933-19.17-5.107-21.067-2.774-22.029 0-22.029 1.937-22.029 3.686-21.543 5.198-20.585 6.567-19.718 7.735-18.466 8.67-16.865L8.747-16.731 10.575-18.095 10.516-18.201C9.471-20.039 8.064-21.487 6.335-22.503 4.488-23.587 2.356-24.137 0-24.137M0 .97C-3.653 .97-6.72-.258-9.12-2.681-11.521-5.103-12.739-8.218-12.739-11.94-12.739-15.647-11.527-18.755-9.132-21.177-6.74-23.601-3.668-24.829 0-24.829 2.481-24.829 4.731-24.248 6.686-23.102 8.645-21.949 10.206-20.286 11.329-18.158L11.467-17.895 8.521-15.696 8.33-16.052C7.411-17.779 6.233-19.108 4.828-20.001 3.427-20.887 1.802-21.336 0-21.336-2.578-21.336-4.742-20.445-6.432-18.689-8.127-16.926-8.985-14.655-8.985-11.94-8.985-9.224-8.125-6.951-6.431-5.182-4.742-3.418-2.578-2.523 0-2.523 1.68-2.523 3.222-2.917 4.58-3.693 5.931-4.464 6.981-5.547 7.702-6.915L7.886-7.267 10.973-5.068 10.794-4.79C9.623-2.954 8.084-1.518 6.217-.524 4.349 .468 2.257 .97 0 .97M0-25.107C-3.745-25.107-6.884-23.849-9.33-21.371-11.775-18.895-13.016-15.722-13.016-11.94-13.016-8.142-11.771-4.962-9.318-2.487-6.864-.01-3.729 1.247 0 1.247 2.304 1.247 4.439 .733 6.346-.28 8.256-1.297 9.83-2.764 11.028-4.641L11.347-5.14 11.241-5.216 7.789-7.675 7.458-7.044C6.762-5.724 5.747-4.677 4.443-3.932 3.126-3.18 1.632-2.8 0-2.8-2.5-2.8-4.596-3.665-6.233-5.373-7.875-7.088-8.708-9.298-8.708-11.94-8.708-14.581-7.875-16.787-6.235-18.498-4.596-20.198-2.499-21.059 0-21.059 1.75-21.059 3.324-20.625 4.68-19.767 6.044-18.901 7.19-17.606 8.086-15.923L8.427-15.282 11.823-17.816 11.573-18.287C10.426-20.461 8.828-22.161 6.826-23.339 4.828-24.512 2.531-25.107 0-25.107" fill="#2b5288"/>
<path transform="matrix(1,0,0,-1,0,612)" d="M373.522 272.732H376.538V248.646H373.522Z" fill="#2b5288"/>
<path transform="matrix(1,0,0,-1,0,612)" d="M373.66 248.785H376.4V272.594H373.66ZM376.676 248.508H373.382V272.871H376.676Z" fill="#2b5288"/>
<path transform="matrix(1,0,0,-1,0,612)" d="M374.007 249.132H376.052V272.24803H374.007ZM377.024 248.162H373.03599V273.217H377.024Z" fill="#2b5288"/>
<path transform="matrix(1,0,0,-1,0,612)" d="M374.145 249.27H375.913V272.109H374.145ZM376.19 248.993H373.868V272.386H376.19ZM373.174 248.301H376.885V273.07899H373.174ZM377.162 248.024H372.89698V273.35603H377.162Z" fill="#2b5288"/>
<path transform="matrix(1,0,0,-1,399.7842,342.1523)" d="M0 0H-7.291V-18.444H0C2.951-18.444 5.274-17.617 6.966-15.959 8.658-14.305 9.505-12.065 9.505-9.245 9.505-6.467 8.644-4.233 6.922-2.539 5.201-.846 2.893 0 0 0M0 2.755C3.777 2.755 6.818 1.641 9.126-.587 11.432-2.815 12.586-5.715 12.586-9.287 12.586-12.89 11.451-15.775 9.178-17.947 6.908-20.115 3.848-21.201 0-21.201H-10.264V2.755Z" fill="#2b5288"/>
<path transform="matrix(1,0,0,-1,392.6313,360.4579)" d="M0 0H7.152C10.055 0 12.367 .822 14.022 2.445 15.68 4.065 16.52 6.291 16.52 9.06 16.52 11.787 15.664 14.009 13.977 15.667 12.293 17.326 9.996 18.167 7.152 18.167H0ZM7.152-.277H-.277V18.444H7.152C10.071 18.444 12.433 17.576 14.171 15.864 15.914 14.152 16.797 11.863 16.797 9.06 16.797 6.214 15.928 3.921 14.216 2.248 12.507 .573 10.131-.277 7.152-.277M-2.973-2.757H7.152C10.946-2.757 14.002-1.675 16.236 .459 18.468 2.593 19.6 5.473 19.6 9.018 19.6 12.535 18.45 15.428 16.184 17.619 13.912 19.811 10.874 20.923 7.152 20.923H-2.973ZM7.152-3.034H-3.25V21.2H7.152C10.947 21.2 14.05 20.062 16.374 17.818 18.698 15.573 19.877 12.612 19.877 9.018 19.877 5.395 18.716 2.447 16.426 .259 14.14-1.926 11.019-3.034 7.152-3.034" fill="#2b5288"/>
<path transform="matrix(1,0,0,-1,392.9788,360.1116)" d="M0 0H6.805C9.613 0 11.841 .79 13.432 2.347 15.022 3.901 15.826 6.043 15.826 8.714 15.826 11.343 15.005 13.483 13.387 15.075 11.769 16.667 9.555 17.474 6.805 17.474H0ZM6.805-.97H-.971V18.444H6.805C9.82 18.444 12.262 17.543 14.066 15.765 15.878 13.986 16.797 11.613 16.797 8.714 16.797 5.772 15.892 3.397 14.11 1.654 12.332-.087 9.875-.97 6.805-.97M-2.973-2.757H6.805C10.507-2.757 13.482-1.707 15.649 .363 17.81 2.429 18.905 5.225 18.905 8.672 18.905 12.091 17.792 14.9 15.595 17.023 13.39 19.151 10.433 20.23 6.805 20.23H-2.973ZM6.805-3.726H-3.945V21.2H6.805C10.694 21.2 13.878 20.029 16.268 17.721 18.662 15.408 19.877 12.364 19.877 8.672 19.877 4.95 18.679 1.918 16.319-.338 13.966-2.587 10.764-3.726 6.805-3.726" fill="#2b5288"/>
<path transform="matrix(1,0,0,-1,393.117,359.97309)" d="M0 0H6.666C9.436 0 11.633 .776 13.196 2.307 14.757 3.832 15.549 5.941 15.549 8.576 15.549 11.166 14.743 13.273 13.151 14.837 11.561 16.404 9.379 17.197 6.666 17.197H0ZM6.666-.277H-.277V17.474H6.666C9.454 17.474 11.701 16.653 13.345 15.034 14.991 13.416 15.826 11.243 15.826 8.576 15.826 5.865 15.005 3.689 13.39 2.109 11.773 .526 9.51-.277 6.666-.277M-.971-.97H6.666C9.699-.97 12.124-.101 13.874 1.614 15.63 3.331 16.52 5.673 16.52 8.576 16.52 11.436 15.615 13.775 13.831 15.528 12.054 17.279 9.643 18.167 6.666 18.167H-.971ZM6.666-1.247H-1.248V18.444H6.666C9.719 18.444 12.194 17.529 14.025 15.725 15.863 13.918 16.797 11.512 16.797 8.576 16.797 5.596 15.878 3.187 14.068 1.417 12.264-.35 9.775-1.247 6.666-1.247M-2.973-2.757H6.666C10.33-2.757 13.275-1.721 15.416 .325 17.547 2.364 18.628 5.126 18.628 8.533 18.628 11.913 17.529 14.69 15.362 16.785 13.181 18.887 10.257 19.953 6.666 19.953H-2.973ZM6.666-3.034H-3.25V20.23H6.666C10.33 20.23 13.32 19.137 15.552 16.984 17.777 14.835 18.905 11.991 18.905 8.533 18.905 5.047 17.795 2.218 15.606 .125 13.412-1.971 10.404-3.034 6.666-3.034M-3.945-3.726H6.666C10.589-3.726 13.759-2.599 16.085-.377 18.418 1.854 19.6 4.851 19.6 8.533 19.6 12.187 18.4 15.197 16.034 17.483 13.671 19.766 10.519 20.923 6.666 20.923H-3.945ZM6.666-4.003H-4.222V21.2H6.666C10.593 21.2 13.809 20.016 16.225 17.681 18.648 15.342 19.877 12.264 19.877 8.533 19.877 4.773 18.664 1.708 16.275-.577 13.896-2.85 10.663-4.003 6.666-4.003" fill="#2b5288"/>
<path transform="matrix(1,0,0,-1,423.3762,363.3531)" d="M0 0V23.956H18.837V21.201H2.973V14.17H12.565V11.413H2.973V2.757H19.812V0Z" fill="#2b5288"/>
<path transform="matrix(1,0,0,-1,423.5146,363.21449)" d="M0 0H19.535V2.48H2.696V11.413H12.287V13.893H2.696V21.2H18.56V23.679H0ZM19.812-.277H-.277V23.956H18.837V20.923H2.973V14.17H12.564V11.136H2.973V2.757H19.812Z" fill="#2b5288"/>
<path transform="matrix(1,0,0,-1,423.8621,362.8682)" d="M0 0H18.84V1.787H2.002V11.413H11.593V13.2H2.002V21.2H17.866V22.987H0ZM19.812-.97H-.971V23.956H18.837V20.231H2.973V14.17H12.564V10.444H2.973V2.757H19.812Z" fill="#2b5288"/>
<path transform="matrix(1,0,0,-1,424.0003,362.7297)" d="M0 0H18.563V1.51H1.725V11.413H11.316V12.923H1.725V21.2H17.589V22.71H0ZM18.84-.277H-.277V22.987H17.866V20.923H2.002V13.2H11.593V11.136H2.002V1.787H18.84ZM-.971-.97H19.535V2.48H2.696V10.444H12.287V13.893H2.696V20.231H18.56V23.679H-.971ZM19.812-1.247H-1.248V23.956H18.837V19.954H2.973V14.17H12.565V10.167H2.973V2.757H19.812Z" fill="#2b5288"/>
<path transform="matrix(1,0,0,-1,456.2572,350.073)" d="M0 0H10.567C12.072 0 13.21 .332 13.985 .999 14.759 1.663 15.145 2.64 15.145 3.928 15.145 5.186 14.759 6.166 13.985 6.867 13.21 7.57 12.123 7.921 10.719 7.921H0ZM-2.973-13.28V10.676H10.763C13.106 10.676 14.943 10.087 16.274 8.908 17.605 7.728 18.27 6.098 18.27 4.015 18.27 2.279 17.749 .791 16.708-.444 15.666-1.681 14.293-2.452 12.586-2.755L18.575-13.28H15.276L9.287-2.8H0V-13.28Z" fill="#2b5288"/>
<path transform="matrix(1,0,0,-1,456.3964,349.9341)" d="M0 0H10.428C11.892 0 13.012 .325 13.755 .964 14.493 1.596 14.867 2.547 14.867 3.789 14.867 5.002 14.493 5.957 13.752 6.626 13.009 7.301 11.942 7.643 10.579 7.643H0ZM10.428-.277H-.277V7.92H10.579C12.012 7.92 13.142 7.553 13.939 6.831 14.737 6.107 15.144 5.083 15.144 3.789 15.144 2.463 14.737 1.442 13.935 .755 13.14 .07 11.96-.277 10.428-.277M15.218-13.28H18.198L12.228-2.793 12.422-2.758C14.088-2.463 15.448-1.701 16.462-.494 17.479 .711 17.993 2.18 17.993 3.875 17.993 5.907 17.337 7.519 16.043 8.666 14.745 9.816 12.921 10.399 10.624 10.399H-2.973V-13.28H-.277V-2.8H9.23L9.269-2.87ZM18.673-13.557H15.056L15.016-13.487 9.068-3.077H0V-13.557H-3.25V10.676H10.624C12.991 10.676 14.876 10.069 16.227 8.872 17.583 7.671 18.27 5.989 18.27 3.875 18.27 2.114 17.732 .584 16.675-.672 15.655-1.882 14.306-2.663 12.662-2.994Z" fill="#2b5288"/>
<path transform="matrix(1,0,0,-1,456.742,349.5878)" d="M0 0H10.082C11.46 0 12.503 .297 13.183 .881 13.851 1.453 14.174 2.292 14.174 3.443 14.174 4.568 13.847 5.412 13.174 6.023 12.494 6.638 11.505 6.951 10.233 6.951H0ZM10.082-.97H-.971V7.92H10.233C11.753 7.92 12.962 7.523 13.825 6.741 14.701 5.947 15.146 4.838 15.146 3.443 15.146 2.012 14.698 .903 13.816 .146 12.955-.594 11.699-.97 10.082-.97M15.072-13.28H17.258L11.34-2.883 12.016-2.763C13.599-2.482 14.89-1.76 15.853-.617 16.813 .522 17.299 1.917 17.299 3.529 17.299 5.484 16.7 6.966 15.468 8.06 14.236 9.152 12.489 9.706 10.278 9.706H-2.972V-13.28H-.971V-2.8H9.084ZM18.923-14.25H14.511L8.523-3.769H0V-14.25H-3.943V10.676H10.278C12.734 10.676 14.696 10.04 16.112 8.785 17.544 7.514 18.27 5.746 18.27 3.529 18.27 1.682 17.705 .076 16.594-1.242 15.621-2.398 14.363-3.18 12.849-3.573Z" fill="#2b5288"/>
<path transform="matrix(1,0,0,-1,456.8802,349.4493)" d="M0 0H9.944C11.287 0 12.3 .285 12.955 .847 13.59 1.391 13.897 2.195 13.897 3.304 13.897 4.388 13.586 5.198 12.942 5.782 12.289 6.374 11.331 6.673 10.095 6.673H0ZM9.944-.277H-.277V6.95H10.095C11.401 6.95 12.422 6.626 13.129 5.987 13.833 5.348 14.174 4.47 14.174 3.304 14.174 2.11 13.834 1.238 13.135 .638 12.43 .031 11.356-.277 9.944-.277M-.971-.97H9.944C11.527-.97 12.752-.606 13.588 .112 14.439 .843 14.869 1.917 14.869 3.304 14.869 4.658 14.441 5.733 13.593 6.5 12.757 7.259 11.579 7.643 10.095 7.643H-.971ZM9.944-1.247H-1.248V7.92H10.095C11.651 7.92 12.89 7.511 13.78 6.705 14.685 5.883 15.146 4.739 15.146 3.304 15.146 1.832 14.682 .688 13.768-.098 12.881-.86 11.595-1.247 9.944-1.247M15.014-13.28H16.882L10.983-2.92 11.854-2.766C13.405-2.49 14.667-1.784 15.608-.666 16.547 .445 17.022 1.81 17.022 3.391 17.022 5.304 16.439 6.752 15.237 7.818 14.031 8.888 12.316 9.429 10.14 9.429H-2.972V-13.28H-1.248V-2.8H9.026L9.066-2.87ZM17.356-13.557H14.853L14.813-13.487 8.864-3.077H-.971V-13.557H-3.249V9.706H10.14C12.386 9.706 14.162 9.141 15.421 8.025 16.684 6.903 17.299 5.386 17.299 3.391 17.299 1.744 16.801 .318 15.82-.845 14.836-2.013 13.518-2.751 11.901-3.037L11.419-3.124ZM14.453-14.25H18.547L12.502-3.624 12.676-3.578C14.16-3.193 15.396-2.424 16.349-1.292 17.441 .003 17.993 1.578 17.993 3.391 17.993 5.566 17.283 7.299 15.881 8.543 14.493 9.775 12.561 10.399 10.14 10.399H-3.943V-14.25H-.277V-3.769H8.465L8.505-3.84ZM19.022-14.527H14.291L14.252-14.457 8.303-4.046H0V-14.527H-4.22V10.676H10.14C12.629 10.676 14.624 10.027 16.065 8.75 17.527 7.451 18.27 5.648 18.27 3.391 18.27 1.511 17.695-.125 16.561-1.47 15.608-2.602 14.383-3.384 12.919-3.798Z" fill="#2b5288"/>
<path transform="matrix(1,0,0,-1,314.2883,303.0308)" d="M0 0C-4.137 4.398-5.898 9.73-5.386 16.301-4.934 22.102-2.391 26.835 2.173 30.371 3.05 31.052 3.983 31.653 4.958 32.172L4.976 32.161C5.552 32.533 6.119 32.769 6.68 32.914 5.136 33.164 3.555 33.174 1.906 32.107L1.889 32.117C.913 31.597-.019 30.994-.897 30.312-5.461 26.767-8.004 22.022-8.456 16.206-8.968 9.618-7.206 4.272-3.069-.137 .343-3.775 5.107-5.951 10.346-6.264 11.657-6.341 12.951-6.297 14.215-6.14 13.949-6.134 13.683-6.126 13.415-6.11 8.177-5.798 3.412-3.628 0 0" fill="#2b5288"/>
<path transform="matrix(1,0,0,-1,328.7534,257.8292)" d="M0 0H-.011C-.592 0-1.168-.021-1.74-.053 6.054-.381 13.304-3.584 18.799-9.166 24.607-15.065 27.805-22.958 27.804-31.389 27.802-47.396 15.802-60.621 .442-62.319 17.243-62.165 30.872-48.302 30.874-31.288 30.874-22.878 27.677-15.005 21.869-9.121 16.062-3.238 8.297 0 0 0" fill="#2b5288"/>
<path transform="matrix(1,0,0,-1,332.9666,269.9015)" d="M0 0C-.078 .018-.154 .03-.231 .045-.195 .021-.156 .001-.122-.024-.081-.015-.04-.009 0 0" fill="#2b5288"/>
<path transform="matrix(1,0,0,-1,372.9601,259.4012)" d="M0 0 8.29-26.488C9.718-31.103 11.146-35.718 12.593-40.328L13.016-41.739 13.022-41.721C13.155-41.395 13.28-41.088 13.373-40.788 13.802-39.394 14.229-37.998 14.657-36.604L10.302-22.75C10.295-22.729 10.28-22.715 10.271-22.695L3.142 .025C3.055 .302 2.799 .491 2.509 .491L-8.498 .49C-8.586 .49-8.672 .488-8.761 .485-8.803 .483-8.843 .475-8.883 .466L-.633 .467C-.344 .467-.087 .278 0 0" fill="#2b5288"/>
<path transform="matrix(1,0,0,-1,401.5728,287.5578)" d="M0 0C-.229-.338-.429-.663-.517-.986-2.137-6.926-3.729-12.873-5.321-18.821-6.097-21.721-6.874-24.62-7.653-27.519-8.213-29.602-8.828-30.512-10.275-30.853H-9.123C-6.141-30.853-5.278-30.198-4.51-27.351-3.731-24.459-2.954-21.568-2.178-18.675-.941-14.065 .3-9.455 1.551-4.848 1.199-3.552 .845-2.257 .486-.971 .397-.652 .212-.332 0 0" fill="#2b5288"/>
<path transform="matrix(1,0,0,-1,405.426,259.776)" d="M0 0 3.93-16.338C4.78-19.054 5.637-21.816 6.484-24.579 7.391-27.534 8.294-30.489 9.197-33.444L9.454-34.285C9.463-34.316 9.47-34.348 9.475-34.38L11.623-41.556 13.243-36.348 12.617-34.265C12.613-34.233 12.606-34.201 12.596-34.17L12.339-33.332C11.436-30.384 10.533-27.436 9.626-24.489 8.779-21.733 7.923-18.979 7.073-16.269L3.143 .026C3.071 .326 2.803 .536 2.497 .536H2.492L-.623 .507C-.327 .497-.07 .293 0 0" fill="#2b5288"/>
<path transform="matrix(1,0,0,-1,445.5637,258.9622)" d="M0 0C-.064 .01-.128 .018-.198 .018-4.369 .065-8.543 .054-11.715 .04-11.744 .039-11.77 .03-11.798 .026-9.209 .031-6.278 .027-3.34-.006-3.271-.007-3.207-.015-3.142-.024-2.95-.054-2.743-.172-2.641-.339-2.539-.505-2.477-.714-2.538-.9L-5.834-11.034C-5.958-11.379-6.069-11.712-6.173-12.05L-6.504-13.095-11.122-27.296C-11.93-29.731-12.737-32.163-13.532-34.598-14.862-38.675-16.178-42.756-17.495-46.837-18.488-49.914-19.48-52.991-20.479-56.066-21.175-58.209-21.807-59.112-23.291-59.449H-22.272C-19.129-59.449-18.299-58.852-17.336-55.898-16.338-52.831-15.345-49.762-14.352-46.692-13.036-42.622-11.719-38.551-10.39-34.485-9.595-32.056-8.788-29.63-7.979-27.202L-3.361-13.037-3.03-11.995C-2.926-11.658-2.815-11.326-2.691-10.982L.604-.873C.665-.688 .604-.48 .502-.314 .399-.147 .193-.03 0 0" fill="#2b5288"/>
<path transform="matrix(1,0,0,-1,249.5957,293.0569)" d="M0 0C-1.073-.265-1.952-.701-2.619-1.315-3.188-1.9-3.818-2.898-4.012-4.489V-16.276-25.632C-2.964-25.633-1.916-25.634-.867-25.631-.502-25.631-.205-25.331-.205-24.961V-4.275C-.023-2.882 .545-2.057 .965-1.633 1.54-1.116 2.324-.735 3.297-.501 6.435 .257 9.682 .645 12.954 .654 14.875 .679 16.783 .553 18.666 .302 15.736 .924 12.779 1.219 9.807 1.201 6.514 1.192 3.239 .8 0 0" fill="#2b5288"/>
<path transform="matrix(1,0,0,-1,245.7568,267.7542)" d="M0 0C0-1.058-.066-8.461-.09-13.348 .011-14.605 .463-15.025 1.952-14.835 2.34-14.731 3.173-14.523 4.367-14.302 4.109-14.289 3.991-14.235 3.939-14.193 3.824-14.098 3.748-13.84 3.716-13.484 3.73-10.812 3.756-7.37 3.777-4.677 3.793-2.557 3.806-.901 3.806-.446V8.175C3.806 8.544 3.509 8.843 3.143 8.843-.692 8.845-4.529 8.845-8.364 8.84-8.388 8.84-8.408 8.829-8.431 8.826-5.621 8.828-2.81 8.83 0 8.829Z" fill="#2b5288"/>
<path transform="matrix(1,0,0,-1,288.0678,258.9147)" d="M0 0C-3.835 .005-7.671 .005-11.507 .003-11.534 .003-11.556-.009-11.582-.012-8.769-.012-5.956-.01-3.143-.015V-9.788C-3.169-10.052-3.182-10.323-3.182-10.602-3.184-23.087-3.174-47.135-3.247-59.715L-3.233-59.763-.244-59.762C-.201-59.771-.157-59.775-.112-59.775-.071-59.775-.03-59.771 .011-59.764 .043-59.758 .074-59.75 .104-59.74 .248-59.702 .377-59.615 .468-59.492 .593-59.321 .631-59.101 .569-58.898L.559-58.867C.624-48.001 .624-28.586 .624-15.724V-11.006C.624-10.757 .637-10.514 .663-10.211V-.668C.663-.299 .366-.001 0 0" fill="#2b5288"/>
<path transform="matrix(1,0,0,-1,270.5434,282.4616)" d="M0 0C.252-.037 .503-.072 .755-.11 2.036-.302 2.598-.086 2.834 .639-7.342 2.701-15.687 1.348-18.823 .663-14.678 1.27-7.869 1.704 0 0" fill="#2b5288"/>
<path transform="matrix(1,0,0,-1,550.8723,309.1019)" d="M0 0C2.71 .1 5.425 .142 7.982 1.127 6.639 .938 5.255 .885 3.828 .836L3.268 .815C-4.964 .511-11.519 2.752-16.757 7.666-17.172 8.057-17.667 8.419-18.187 8.713-18.963 9.15-19.754 9.244-20.424 8.977-20.929 8.774-21.319 8.372-21.562 7.833-21.199 7.603-20.848 7.349-20.541 7.06-14.849 1.706-7.869-.291 0 0" fill="#2b5288"/>
<path transform="matrix(1,0,0,-1,554.2562,258.9395)" d="M0 0 .009-.01C.009-.01 .121-.009 .313-.015 1.16-.038 3.734-.188 6.89-1.087 7.041-1.131 7.193-1.174 7.347-1.221 7.405-1.238 7.464-1.256 7.522-1.274 10.569-2.22 14.056-3.88 17.018-6.771 17.968-7.581 20.713-10.23 21.075-14.08 21.375-17.273 20.501-18.31 19.822-18.645 20.622-19.267 21.654-19.548 22.514-19.384 23.37-19.3 25.316-18.604 24.878-13.957 24.501-9.948 21.754-7.214 20.623-6.255 18.007-3.708 14.723-1.81 10.854-.611L10.682-.56C10.523-.512 10.368-.467 10.214-.424 7.026 .483 4.438 .644 3.474 .672 3.388 .674 3.316 .675 3.263 .676 3.233 .682 3.202 .685 3.171 .686-.19 .831-3.645 .43-7.118-.5-4.749-.074-2.376 .102 0 0" fill="#2b5288"/>
<path transform="matrix(1,0,0,-1,574.7388,290.2422)" d="M0 0C-2.052 1.713-4.454 3.148-6.946 4.149-10.014 5.382-13.209 6.421-16.3 7.427-17.64 7.863-18.98 8.299-20.314 8.752-20.859 8.936-21.408 9.112-21.956 9.287-24.216 10.009-26.349 10.69-28.228 12.008-30.046 13.282-30.399 14.98-29.222 16.787-28.742 17.525-28.097 18.208-27.406 18.711-25.637 19.998-23.443 20.738-20.699 20.971-18.845 21.128-17.078 21.103-15.392 20.899-18.046 21.613-20.881 21.839-23.898 21.583-26.458 21.365-28.862 20.708-30.939 19.192-31.708 18.631-32.403 17.885-32.921 17.089-34.302 14.962-33.831 12.851-31.751 11.39-29.313 9.676-26.438 8.982-23.67 8.04-19.217 6.526-14.69 5.192-10.336 3.438-7.918 2.464-5.562 1.054-3.568-.615 1.15-4.564 1.808-9.744 .201-15.363-1.424-21.047-5.486-24.387-10.866-26.398-15.005-27.944-19.318-28.491-23.25-28.532-25.042-28.521-26.773-28.441-28.447-28.254-26.023-28.753-23.294-28.997-20.101-29.017-15.471-28.97-11.228-28.239-7.492-26.846-1.319-24.545 2.434-20.802 3.981-15.402 5.836-8.936 4.496-3.754 0 0" fill="#2b5288"/>
<path transform="matrix(1,0,0,-1,518.5472,263.035)" d="M0 0 1.348-6.081C1.391-6.278 1.343-6.483 1.217-6.641 1.146-6.731 1.052-6.796 .948-6.838H3.842C4.043-6.838 4.233-6.747 4.36-6.59 4.486-6.433 4.534-6.227 4.49-6.031L3.142 .034C2.503 2.922 1.209 3.946-1.803 3.946-13.866 3.948-25.927 3.948-37.987 3.942-38.029 3.942-38.065 3.925-38.105 3.918-27.052 3.923-16 3.924-4.946 3.922-1.934 3.922-.64 2.895 0 0" fill="#2b5288"/>
<path transform="matrix(1,0,0,-1,523.8625,307.4849)" d="M0 0H-31.495V3.759C-31.526 5.274-31.527 6.852-31.498 8.622-31.497 8.633-31.495 8.678-31.495 8.69V8.949C-31.488 8.99-31.484 9.031-31.484 9.074V14.645H-34.626V8.948C-34.626 8.905-34.63 8.863-34.638 8.823V8.563C-34.638 8.55-34.64 8.506-34.64 8.494-34.67 6.72-34.668 5.138-34.638 3.619V-.15H-3.142C-2.939-.15-2.746-.244-2.621-.405-2.495-.567-2.449-.778-2.497-.977-3.161-3.728-3.822-6.264-4.517-8.73-4.857-9.934-5.769-10.754-7.091-11.095-6.541-11.095-5.99-11.095-5.439-11.094-3.312-11.093-1.831-10.169-1.374-8.558-.679-6.099-.019-3.569 .645-.825 .693-.626 .648-.416 .522-.255 .396-.094 .203 0 0 0" fill="#2b5288"/>
<path transform="matrix(1,0,0,-1,489.2246,273.4543)" d="M0 0C0-.016-.003-.067-.003-.083L0-5.332C.005-5.365 .008-5.399 .008-5.433L.012-8.089H19.811C20.178-8.089 20.474-8.393 20.474-8.769V-18.949C20.474-19.192 20.343-19.395 20.156-19.515H22.953C23.32-19.515 23.617-19.212 23.617-18.837V-8.683C23.617-8.308 23.32-8.005 22.953-8.005H3.154L3.15-5.356C3.15-5.322 3.148-5.288 3.142-5.255L3.139-.02C3.14-.004 3.142 .047 3.142 .063V3.81H0Z" fill="#2b5288"/>
<path transform="matrix(1,0,0,-1,466.407,258.9131)" d="M0 0C-3.706 .005-7.413 .004-11.119-.003-11.159-.003-11.195-.02-11.233-.027-8.536-.024-5.839-.021-3.142-.024-2.776-.025-2.479-.325-2.479-.695V-11.66C-2.495-12.03-2.499-12.378-2.491-12.732L-2.479-13.491V-59.394C-2.479-59.591-2.567-59.764-2.7-59.887-2.171-59.887-1.641-59.886-1.112-59.886H-.001C.366-59.886 .663-59.587 .663-59.217V-13.432L.652-12.675C.643-12.322 .647-11.975 .663-11.606V-.669C.663-.3 .366-.001 0 0" fill="#2b5288"/>
<path transform="matrix(1,0,0,-1,451.4832,295.3159)" d="M0 0V-.055 0Z" fill="#2b5288"/>
<path transform="matrix(1,0,0,-1,451.4859,296.3529)" d="M0 0-.003 .982V-11.343C-.003-11.349 .001-11.354 .001-11.36 .03-10.968 .044-10.636 .042-10.307 .02-6.871 .01-3.435 0 0" fill="#2b5288"/>
<path transform="matrix(1,0,0,-1,284.9246,259.1078)" d="M0 0V-9.7C-.025-9.963-.039-10.232-.039-10.508-.041-22.901-.031-46.77-.104-59.257L-.065-59.388H-.105V-59.414L-.114-59.388C-1.545-59.388-2.916-59.389-4.35-59.389-6.677-59.389-9.005-59.394-11.333-59.388V-50.044-38.379C-11.527-36.805-12.156-35.818-12.726-35.238-13.392-34.631-14.272-34.199-15.345-33.937-18.705-33.115-22.104-32.728-25.522-32.749-28.815-32.757-32.09-33.145-35.329-33.937-36.402-34.199-37.281-34.631-37.948-35.238-38.517-35.818-39.147-36.805-39.341-38.379V-50.044-59.388C-41.669-59.394-43.996-59.389-46.324-59.389-47.757-59.389-49.128-59.388-50.56-59.388L-50.569-59.414C-50.569-59.405-50.569-59.396-50.569-59.388H-50.609L-50.57-59.257C-50.642-46.77-50.633-22.901-50.635-10.508-50.635-10.232-50.648-9.963-50.673-9.7V0C-46.838 .006-43.003 .005-39.168 .004V-8.759C-39.168-9.809-39.234-17.156-39.258-22.006-39.157-23.254-38.705-23.671-37.216-23.482-35.581-23.046-26.166-20.801-14.381-23.354-14.13-23.391-13.878-23.426-13.626-23.464-11.993-23.709-11.52-23.302-11.416-22.006-11.439-17.156-11.506-9.809-11.506-8.759V.004C-7.67 .005-3.835 .006 0 0" fill="#ffffff"/>
<path transform="matrix(1,0,0,-1,416.0892,318.5893)" d="M0 0C-.921 0-1.842 .001-2.763 .002-5.17 .005-6.096 .688-6.723 2.926-7.572 5.959-8.392 9.052-9.185 12.043-9.53 13.347-9.876 14.649-10.224 15.952L-11.121 19.314C-12.061 22.84-13.034 26.487-14.03 30.06-14.119 30.379-14.304 30.699-14.516 31.032-14.745 30.693-14.946 30.368-15.033 30.046-16.653 24.105-18.245 18.158-19.837 12.21-20.613 9.311-21.39 6.411-22.169 3.513-22.937 .658-23.799 .001-26.781 .001H-33.394C-36.232 .001-37.087 .616-37.967 3.291-39.292 7.323-40.603 11.359-41.914 15.395L-45.644 26.857C-47.624 32.932-49.604 39.007-51.562 45.089L-55.646 58.615C-55.706 58.812-55.671 59.026-55.55 59.194-55.43 59.362-55.238 59.464-55.032 59.471-54.943 59.474-54.857 59.477-54.77 59.477H-43.762C-43.473 59.477-43.217 59.289-43.129 59.013L-34.839 32.636C-33.411 28.04-31.983 23.445-30.536 18.854L-30.113 17.449-30.107 17.468C-29.974 17.791-29.849 18.097-29.756 18.396-28.416 22.734-27.08 27.075-25.743 31.416L-24.877 34.189C-24.874 34.227-24.866 34.265-24.855 34.301L-22.61 41.583C-22.561 41.744-21.899 44.102-21.132 46.832-19.3 53.354-17.889 58.365-17.784 58.654-17.689 58.914-17.443 59.088-17.166 59.09L-11.314 59.144H-11.308C-11.002 59.144-10.735 58.935-10.663 58.636L-6.733 42.368C-5.883 39.663-5.027 36.913-4.179 34.162-3.272 31.22-2.369 28.277-1.466 25.334L-1.21 24.497C-1.2 24.466-1.193 24.435-1.188 24.403L.96 17.257 7.201 37.244C7.694 38.813 8.187 40.382 8.676 41.951 8.827 42.434 8.974 42.918 9.122 43.402L9.321 44.054 13.987 59.004C14.074 59.281 14.328 59.47 14.617 59.471 17.789 59.485 21.963 59.496 26.134 59.449 26.204 59.449 26.268 59.441 26.332 59.431 26.525 59.401 26.731 59.284 26.834 59.118 26.936 58.952 26.997 58.744 26.936 58.558L23.641 48.453C23.517 48.109 23.406 47.777 23.302 47.44L22.971 46.398 18.353 32.238C17.544 29.81 16.737 27.385 15.943 24.957 14.613 20.893 13.296 16.823 11.98 12.754 10.987 9.685 9.994 6.617 8.996 3.551 8.033 .598 7.203 .001 4.06 .001H1.624C1.083 .001 .541 0 0 0" fill="#ffffff"/>
<path transform="matrix(1,0,0,-1,452.1471,318.5926)" d="M0 0C-.176 0-.345 .07-.469 .194-.594 .319-.664 .488-.664 .665V10.825C-.631 11.243-.617 11.587-.62 11.933-.641 15.369-.651 18.804-.661 22.24L-.664 23.221-.662 45.971C-.64 46.772-.619 47.572-.618 48.373-.618 48.633-.633 48.894-.66 49.149-.663 49.172-.664 49.196-.664 49.22V58.809C-.664 59.175-.368 59.473-.001 59.473 3.705 59.481 7.411 59.481 11.118 59.477 11.484 59.476 11.781 59.179 11.781 58.812V47.951C11.765 47.584 11.761 47.24 11.769 46.889L11.781 46.138V.669C11.781 .302 11.484 .005 11.117 .005H10.005C6.674 .007 3.335 .005 .001 0Z" fill="#ffffff"/>
<path transform="matrix(1,0,0,-1,505.9153,318.5893)" d="M0 0H-5.333L-28.497 .002C-28.864 .002-29.161 .3-29.161 .667L-29.157 48.635C-29.159 48.655-29.161 48.685-29.161 48.715V58.807C-29.161 59.174-28.864 59.472-28.497 59.472-16.437 59.479-4.376 59.479 7.686 59.476 10.698 59.476 11.992 58.45 12.632 55.554L13.98 49.473C14.023 49.277 13.975 49.071 13.849 48.913 13.723 48.756 13.533 48.665 13.331 48.665H-16.691V44.94C-16.691 44.924-16.693 44.874-16.694 44.858L-16.691 39.727C-16.685 39.695-16.683 39.662-16.683 39.628L-16.679 37.032H3.12C3.487 37.032 3.784 36.735 3.784 36.367V26.415C3.784 26.047 3.487 25.75 3.12 25.75H-16.679V20.09C-16.679 20.047-16.683 20.006-16.691 19.966V19.707C-16.691 19.695-16.693 19.651-16.693 19.639-16.722 17.876-16.721 16.305-16.691 14.796V11.052H14.805C15.008 11.052 15.201 10.959 15.327 10.798 15.452 10.638 15.498 10.428 15.45 10.23 14.786 7.497 14.125 4.978 13.431 2.529 12.974 .924 11.493 .004 9.366 .003 6.244 .001 3.122 0 0 0" fill="#ffffff"/>
<path transform="matrix(1,0,0,-1,574.9398,305.6057)" d="M0 0C-1.625-5.684-5.687-9.023-11.067-11.034-15.206-12.581-19.519-13.128-23.451-13.169-29.304-13.132-34.516-12.374-39.187-9.474-43.241-6.958-45.913-3.483-46.55 1.313-46.648 2.05-46.602 2.847-46.428 3.569-46.128 4.808-45.131 5.17-44.029 4.514-43.584 4.25-43.159 3.926-42.791 3.564-37.363-1.79-30.706-3.787-23.202-3.496-20.442-3.389-17.675-3.363-15.093-2.168-12.308-.878-10.778 1.639-10.996 4.686-11.083 5.89-11.595 6.959-12.614 7.584-14.146 8.524-15.714 9.485-17.393 10.097-22.729 12.044-28.135 13.8-33.49 15.7-36.173 16.652-38.628 18.065-40.776 19.929-46.382 24.794-47.118 31.94-42.668 37.989-40.079 41.51-36.529 43.715-32.416 45.021-28.519 46.257-24.604 46.835-20.684 46.666L-20.674 46.656C-20.674 46.656-20.563 46.657-20.37 46.651-19.524 46.628-16.95 46.478-13.794 45.579-13.643 45.535-13.491 45.492-13.337 45.445-13.279 45.428-13.22 45.41-13.162 45.392-10.115 44.447-6.628 42.787-3.666 39.895-2.715 39.085 .029 36.436 .391 32.587 .78 28.454-.8 27.926-1.377 27.87-2.128 27.729-3.046 27.981-3.726 28.574-4.303 29.076-4.855 29.609-5.39 30.156-10.523 35.398-16.785 37.568-24.099 36.946-26.659 36.728-29.063 36.071-31.14 34.556-31.909 33.994-32.604 33.248-33.122 32.452-34.503 30.326-34.032 28.215-31.952 26.753-29.514 25.039-26.639 24.345-23.871 23.404-19.418 21.89-14.891 20.556-10.537 18.802-8.119 17.828-5.763 16.418-3.769 14.749 .949 10.8 1.607 5.619 0 0" fill="#ffffff"/>
<path transform="matrix(1,0,0,-1,338.441,304.9614)" d="M0 0C-3.774-3.1-8.666-4.636-13.807-4.333-19.045-4.02-23.81-1.844-27.222 1.793-31.359 6.203-33.121 11.549-32.609 18.137-32.156 23.952-29.614 28.698-25.05 32.243-24.172 32.925-23.239 33.528-22.264 34.048L-22.246 34.038C-18.966 36.161-15.955 34.02-12.966 34.214-13.733 37.31-17.666 37.779-17.848 37.799-18.006 37.815-18.129 37.941-18.144 38.099-18.158 38.257-18.059 38.403-17.907 38.448L-15.934 39.032C-15.865 39.052-15.79 39.05-15.723 39.024-12.219 37.71-11.573 35.574-11.529 34.296-9.12 34.681-6.877 36.101-3.759 34.392L-3.428 34.215C-.228 32.682 2.152 30.546 4.072 27.595 6.355 24.086 7.485 20.221 7.341 16.389 7.414 9.481 5.013 4.12 0 0M9.112 37.966C3.305 43.865-4.46 47.111-12.757 47.111H-12.768C-29.663 47.105-43.43 33.064-43.458 15.811-43.471 7.385-40.24-.5-34.357-6.394-28.647-12.115-20.85-15.377-12.922-15.377-12.806-15.377-12.69-15.377-12.574-15.376 4.346-15.363 18.115-1.404 18.116 15.743 18.117 24.175 14.92 32.068 9.112 37.966" fill="#ffffff"/>
<path transform="matrix(1,0,0,-1,273.8254,318.2638)" d="M0 0C1.513-.003 3.031-.004 4.544-.001L10.764 .001C10.827 10.995 10.827 30.658 10.827 43.684V48.648C10.827 48.93 10.841 49.209 10.866 49.478L10.865 58.923C7.184 58.931 3.506 58.932-.173 58.927V50.397C-.173 49.942-.16 48.302-.146 46.195-.124 43.443-.097 39.897-.083 37.15-.142 36.406-.318 35.963-.657 35.695-1.043 35.39-1.614 35.317-2.561 35.462L-3.317 35.572C-15.02 38.105-24.312 35.913-26.057 35.449-26.928 35.336-27.467 35.418-27.829 35.711-28.16 35.98-28.333 36.417-28.39 37.13-28.378 39.897-28.351 43.443-28.329 46.195-28.315 48.302-28.302 49.942-28.302 50.397V58.927C-31.984 58.93-35.663 58.931-39.341 58.923V49.456C-39.316 49.197-39.302 48.918-39.302 48.648V43.684C-39.302 30.658-39.302 10.995-39.239 .001L-33.02-.001C-31.506-.002-29.989-.003-28.475 0V20.777C-28.264 22.498-27.565 23.522-27.014 24.082-26.318 24.717-25.402 25.172-24.285 25.446-21.078 26.23-17.761 26.632-14.423 26.641-14.342 26.642-14.259 26.642-14.176 26.642-10.796 26.642-7.438 26.24-4.189 25.446-3.072 25.172-2.157 24.717-1.47 24.091-.91 23.521-.212 22.497-.002 20.806ZM10.987-.478C10.958-.478 10.931-.474 10.906-.465L4.544-.467C2.95-.469 1.356-.47-.234-.465-.363-.465-.468-.361-.468-.232V20.777C-.658 22.311-1.293 23.246-1.793 23.756-2.412 24.32-3.259 24.739-4.301 24.992-7.589 25.797-11.012 26.194-14.421 26.175-17.722 26.166-21.004 25.768-24.174 24.992-25.215 24.739-26.063 24.32-26.692 23.746-27.183 23.247-27.818 22.312-28.009 20.749L-28.007-.232C-28.007-.361-28.111-.465-28.241-.465-29.831-.47-31.427-.469-33.02-.467L-39.397-.465C-39.431-.478-39.464-.482-39.503-.475-39.555-.466-39.6-.443-39.636-.411-39.652-.399-39.665-.386-39.676-.371-39.721-.312-39.755-.236-39.733-.165L-39.705-.067C-39.767 10.915-39.767 30.632-39.767 43.684L-39.769 48.648C-39.769 48.917-39.782 49.178-39.807 49.433L-39.809 59.156C-39.809 59.284-39.705 59.389-39.575 59.389-35.74 59.396-31.903 59.396-28.068 59.393-27.939 59.393-27.834 59.289-27.834 59.16V50.397C-27.834 49.941-27.847 48.3-27.863 46.191-27.885 43.441-27.912 39.894-27.924 37.148-27.879 36.593-27.759 36.254-27.536 36.073-27.286 35.87-26.84 35.818-26.145 35.905-24.417 36.37-15.031 38.587-3.234 36.03L-2.493 35.923C-1.698 35.802-1.22 35.845-.946 36.06-.718 36.241-.595 36.583-.549 37.168-.563 39.894-.59 43.441-.612 46.191-.628 48.3-.64 49.941-.64 50.397V59.16C-.64 59.289-.536 59.393-.407 59.393 3.428 59.396 7.263 59.396 11.098 59.389 11.228 59.389 11.332 59.284 11.332 59.156V49.456C11.305 49.178 11.295 48.917 11.295 48.648L11.293 43.684C11.293 30.632 11.293 10.914 11.23-.068L11.257-.167C11.278-.238 11.264-.314 11.219-.372 11.187-.417 11.136-.448 11.082-.46 11.066-.467 11.05-.472 11.032-.475 11.018-.478 11.003-.478 10.987-.478" fill="#2b5288"/>
<path transform="matrix(1,0,0,-1,401.5731,287.3248)" d="M0 0H.004C.081-.001 .155-.041 .196-.108 .405-.434 .612-.787 .711-1.142 1.675-4.6 2.599-8.056 3.619-11.891L4.517-15.253C4.866-16.555 5.211-17.857 5.556-19.162 6.262-21.824 7.138-25.136 8.017-28.276 8.614-30.408 9.453-31.026 11.753-31.03L14.516-31.032 18.576-31.031C21.612-31.031 22.361-30.492 23.291-27.642 24.289-24.576 25.282-21.507 26.275-18.438L26.352-18.196C27.644-14.208 28.935-10.219 30.238-6.235 31.033-3.806 31.838-1.381 32.648 1.048L37.596 16.246C37.701 16.585 37.812 16.919 37.936 17.267L41.232 27.366C41.264 27.463 41.233 27.596 41.151 27.733 41.091 27.83 40.951 27.915 40.813 27.937 40.76 27.944 40.706 27.951 40.647 27.952 36.63 27.997 32.572 27.987 29.135 27.974 28.946 27.973 28.782 27.851 28.727 27.671L23.861 12.069C23.713 11.585 23.566 11.1 23.415 10.617 22.925 9.048 22.433 7.478 21.94 5.909L15.7-14.076C15.669-14.174 15.579-14.24 15.477-14.24H15.475C15.372-14.239 15.282-14.173 15.254-14.075L13.104-6.929 13.306-6.767 13.083-6.835 12.827-5.999C11.924-3.056 11.021-.113 10.115 2.829 9.267 5.579 8.409 8.329 7.56 11.034L3.626 27.316C3.58 27.511 3.407 27.646 3.207 27.646L-2.648 27.593C-2.826 27.592-2.988 27.477-3.049 27.31-3.15 27.03-4.56 22.022-6.391 15.505-7.04 13.195-7.816 10.433-7.871 10.251L-10.116 2.968C-10.124 2.948-10.127 2.926-10.129 2.902L-11.005 .082C-12.34-4.258-13.676-8.598-15.016-12.937-15.106-13.225-15.225-13.517-15.351-13.825L-15.374-13.884C-15.41-13.973-15.5-14.039-15.595-14.039-15.597-14.039-15.601-14.039-15.604-14.039-15.703-14.034-15.792-13.977-15.82-13.883L-16.243-12.478C-17.668-7.954-19.076-3.422-20.485 1.108L-20.546 1.301-28.836 27.678C-28.894 27.859-29.058 27.98-29.246 27.98L-40.253 27.979C-40.338 27.979-40.419 27.976-40.503 27.974-40.643 27.969-40.766 27.904-40.845 27.794-40.924 27.683-40.947 27.546-40.908 27.416L-36.823 13.892C-34.868 7.815-32.887 1.739-30.907-4.335L-26.922-16.577C-25.696-20.353-24.469-24.129-23.229-27.9-22.384-30.474-21.611-31.03-18.878-31.03H-12.266C-9.397-31.03-8.618-30.437-7.879-27.691-7.272-25.442-6.67-23.193-6.067-20.943L-5.546-18.994C-3.993-13.191-2.387-7.191-.741-1.158-.64-.784-.407-.417-.192-.103-.149-.039-.077 0 0 0M14.516-31.498 11.753-31.496C9.24-31.492 8.224-30.74 7.567-28.402 6.688-25.259 5.812-21.944 5.107-19.281 4.761-17.978 4.416-16.676 4.067-15.373L3.169-12.011C2.148-8.177 1.225-4.723 .261-1.267 .207-1.072 .11-.87-.005-.67-.142-.891-.241-1.089-.291-1.279-1.937-7.312-3.544-13.312-5.096-19.115L-5.618-21.064C-6.22-23.313-6.823-25.562-7.429-27.812-8.226-30.773-9.174-31.496-12.266-31.496H-18.878C-21.819-31.496-22.76-30.819-23.672-28.046-24.913-24.274-26.138-20.498-27.365-16.721L-31.349-4.479C-33.33 1.596-35.31 7.671-37.267 13.753L-41.354 27.282C-41.435 27.551-41.386 27.837-41.223 28.065-41.059 28.293-40.805 28.43-40.525 28.44-40.429 28.442-40.341 28.445-40.253 28.445L-29.246 28.446C-28.854 28.446-28.511 28.194-28.392 27.819L-20.04 1.247C-18.632-3.284-17.223-7.815-15.797-12.341L-15.567-13.106C-15.529-13.003-15.493-12.9-15.462-12.799-14.122-8.461-12.786-4.121-11.451 .219L-10.584 2.994C-10.588 2.999-10.577 3.053-10.562 3.103L-8.318 10.387C-8.274 10.531-7.681 12.638-6.841 15.631-4.945 22.376-3.594 27.172-3.488 27.469-3.358 27.819-3.024 28.056-2.651 28.059L3.2 28.112C3.623 28.112 3.983 27.83 4.08 27.426L8.01 11.159C8.855 8.468 9.713 5.717 10.561 2.965 11.467 .023 12.37-2.919 13.273-5.862L13.529-6.699C13.543-6.738 13.554-6.787 13.559-6.835L15.48-13.213 21.494 6.048C21.987 7.617 22.479 9.186 22.969 10.756 23.12 11.239 23.267 11.722 23.415 12.206L23.614 12.858 28.28 27.809C28.397 28.184 28.739 28.437 29.131 28.44 32.572 28.454 36.632 28.464 40.652 28.418 40.732 28.417 40.807 28.408 40.881 28.398 41.156 28.354 41.417 28.189 41.548 27.976 41.705 27.717 41.75 27.449 41.674 27.221L38.377 17.116C38.255 16.77 38.143 16.441 38.041 16.106L37.708 15.064 33.09 .902C32.281-1.527 31.475-3.952 30.68-6.38 29.378-10.363 28.086-14.352 26.796-18.339L26.717-18.582C25.724-21.651 24.731-24.72 23.733-27.786 22.738-30.837 21.823-31.497 18.576-31.497Z" fill="#2b5288"/>
<path transform="matrix(1,0,0,-1,458.3571,259.3465)" d="M0 0C-2.07 0-4.141-.002-6.211-.005-6.447-.006-6.639-.2-6.639-.437V-10.026C-6.609-10.34-6.594-10.609-6.594-10.873-6.596-11.677-6.616-12.479-6.639-13.281L-6.634-38.294C-6.625-41.3-6.616-44.306-6.596-47.312-6.593-47.654-6.607-48.001-6.641-48.439L-6.639-58.581C-6.639-58.697-6.594-58.806-6.513-58.888-6.434-58.968-6.323-59.014-6.209-59.014-2.874-59.007 .468-59.003 3.795-59.008H4.907C5.144-59.008 5.337-58.815 5.337-58.576L5.324-12.36C5.317-12.006 5.321-11.656 5.339-11.285L5.337-.434C5.337-.196 5.144-.003 4.907-.003 3.272-.001 1.635 0 0 0M-6.209-59.479V-59.479C-6.445-59.479-6.677-59.384-6.844-59.217-7.013-59.046-7.107-58.82-7.107-58.581V-48.421C-7.073-47.98-7.06-47.644-7.064-47.316-7.082-44.309-7.091-41.302-7.1-38.295L-7.107-36.025-7.105-13.275C-7.084-12.47-7.064-11.671-7.062-10.872-7.062-10.625-7.075-10.373-7.102-10.122-7.105-10.098-7.107-10.061-7.107-10.026V-.437C-7.107 .057-6.704 .46-6.211 .46-2.508 .47 1.202 .468 4.907 .463 5.402 .463 5.805 .06 5.805-.434V-11.295C5.788-11.667 5.785-12.006 5.792-12.352L5.805-13.104V-58.576C5.805-59.071 5.402-59.474 4.907-59.474H3.795C.464-59.474-2.874-59.473-6.209-59.479" fill="#2b5288"/>
<path transform="matrix(1,0,0,-1,499.3009,259.3447)" d="M0 0C-7.294 0-14.588-.002-21.882-.005-22.12-.005-22.312-.199-22.312-.437V-58.578C-22.312-58.817-22.12-59.01-21.882-59.01L6.614-59.012 15.98-59.009C17.995-59.008 19.395-58.149 19.821-56.652 20.515-54.206 21.173-51.69 21.837-48.959 21.87-48.829 21.841-48.695 21.758-48.59 21.675-48.485 21.553-48.425 21.42-48.425H-10.077C-10.206-48.425-10.311-48.321-10.311-48.192V-44.449C-10.339-42.963-10.341-41.376-10.312-39.602L-10.077-39.539-10.311-39.536V-39.279C-10.3-39.207-10.298-39.183-10.298-39.154V-33.495C-10.298-33.366-10.194-33.262-10.064-33.262H9.735C9.972-33.262 10.165-33.069 10.165-32.83V-22.878C10.165-22.639 9.972-22.446 9.735-22.446H-10.064C-10.192-22.446-10.296-22.342-10.298-22.213L-10.302-19.617C-10.302-19.596-10.303-19.576-10.307-19.556L-10.314-14.386-10.311-14.305V-10.58C-10.311-10.452-10.206-10.347-10.077-10.347H19.945C20.076-10.347 20.199-10.288 20.281-10.186 20.364-10.082 20.395-9.949 20.366-9.82L19.02-3.741C18.402-.945 17.211-.002 14.3-.002 9.534-.001 4.767 0 0 0M6.614-59.478-21.882-59.476C-22.377-59.476-22.78-59.073-22.78-58.578L-22.776-10.61C-22.776-10.605-22.78-10.567-22.78-10.529V-.437C-22.78 .058-22.377 .461-21.882 .461-9.825 .467 2.236 .467 14.3 .464 17.41 .464 18.813-.648 19.474-3.64L20.821-9.721C20.88-9.988 20.816-10.263 20.645-10.477 20.474-10.691 20.218-10.813 19.945-10.813H-9.843V-14.305C-9.843-14.326-9.847-14.393-9.848-14.413L-9.843-19.518C-9.839-19.524-9.834-19.569-9.834-19.617L-9.832-21.98H9.735C10.23-21.98 10.633-22.383 10.633-22.878V-32.83C10.633-33.325 10.23-33.728 9.735-33.728H-9.83V-39.154C-9.83-39.217-9.838-39.275-9.85-39.329L-9.843-39.537C-9.843-39.538-9.845-39.606-9.845-39.606-9.875-41.378-9.874-42.959-9.843-44.444V-47.959H21.42C21.697-47.959 21.954-48.084 22.125-48.302 22.296-48.52 22.357-48.8 22.29-49.07 21.625-51.806 20.965-54.328 20.27-56.779 19.783-58.492 18.218-59.474 15.98-59.475Z" fill="#2b5288"/>
<path transform="matrix(1,0,0,-1,529.8748,301.0036)" d="M0 0C-.146 0-.284-.026-.408-.078-.761-.227-1.013-.576-1.137-1.087-1.306-1.785-1.347-2.556-1.255-3.259-.658-7.745 1.716-11.219 6.001-13.879 10.062-16.4 14.732-17.494 21.616-17.538 26.138-17.49 30.277-16.777 33.916-15.418 39.803-13.218 43.378-9.659 44.84-4.538 46.612 1.658 45.403 6.404 41.145 9.968 39.163 11.627 36.844 13.015 34.441 13.984 31.394 15.21 28.209 16.249 25.127 17.255 23.789 17.692 22.451 18.128 21.118 18.581 20.576 18.766 20.031 18.94 19.486 19.115 17.265 19.826 14.968 20.562 12.978 21.96 10.769 23.514 10.311 25.762 11.748 27.976 12.284 28.804 13.009 29.573 13.788 30.141 15.693 31.532 18.035 32.329 20.947 32.576 28.401 33.206 34.763 30.903 39.843 25.716 40.435 25.112 40.973 24.598 41.491 24.147 42.099 23.622 42.942 23.367 43.646 23.497 44.126 23.545 45.596 24.003 45.223 27.963 44.867 31.757 42.09 34.397 41.248 35.116 38.721 37.582 35.557 39.413 31.835 40.568L31.662 40.62C31.508 40.667 31.358 40.709 31.207 40.752 28.02 41.661 25.411 41.797 24.687 41.816 24.503 41.822 24.393 41.822 24.392 41.822 24.366 41.822 24.341 41.826 24.316 41.834 20.537 41.986 16.633 41.439 12.719 40.196 8.309 38.796 4.993 36.524 2.583 33.249-1.815 27.266-1.086 20.3 4.441 15.503 6.549 13.674 8.976 12.266 11.653 11.317 13.946 10.504 16.288 9.704 18.553 8.929 21.575 7.897 24.699 6.828 27.752 5.714 29.459 5.091 31.042 4.12 32.574 3.181 33.591 2.557 34.204 1.463 34.301 .101 34.524-3.005 32.941-5.652 30.068-6.981 27.613-8.119 24.969-8.217 22.411-8.31L21.871-8.331C13.766-8.645 7.292-6.316 2.11-1.204 1.766-.864 1.354-.548 .917-.288 .595-.097 .282 0 0 0M21.616-18.004C14.637-17.959 9.895-16.844 5.756-14.274 1.405-11.574-1.108-7.889-1.716-3.32-1.817-2.562-1.772-1.73-1.59-.978-1.43-.317-1.083 .143-.59 .351-.085 .563 .538 .48 1.155 .113 1.632-.17 2.063-.502 2.437-.873 7.523-5.887 13.878-8.172 21.853-7.865L22.393-7.845C24.906-7.753 27.503-7.657 29.874-6.558 32.603-5.295 34.047-2.88 33.837 .067 33.751 1.275 33.215 2.24 32.33 2.784 30.819 3.711 29.254 4.67 27.593 5.277 24.544 6.388 21.422 7.456 18.402 8.488 16.135 9.263 13.793 10.063 11.498 10.878 8.766 11.847 6.289 13.284 4.135 15.15-1.59 20.119-2.346 27.332 2.209 33.525 4.644 36.835 8.132 39.23 12.579 40.641 16.563 41.905 20.524 42.462 24.392 42.297 24.411 42.297 24.431 42.293 24.449 42.288 24.501 42.287 24.588 42.286 24.701 42.282 25.437 42.261 28.095 42.124 31.335 41.2 31.488 41.157 31.641 41.113 31.795 41.066L31.973 41.012C35.765 39.836 38.992 37.968 41.561 35.459 42.673 34.512 45.324 31.866 45.687 28.006 46.088 23.739 44.439 23.108 43.712 23.035 42.876 22.877 41.906 23.169 41.185 23.795 40.658 24.256 40.109 24.777 39.508 25.391 34.529 30.474 28.279 32.734 20.986 32.112 18.162 31.872 15.898 31.104 14.061 29.765 13.327 29.229 12.645 28.503 12.14 27.723 10.834 25.714 11.239 23.754 13.246 22.342 15.178 20.985 17.439 20.26 19.628 19.559 20.177 19.383 20.724 19.207 21.269 19.022 22.598 18.571 23.935 18.134 25.273 17.698 28.361 16.69 31.554 15.648 34.614 14.415 37.064 13.43 39.426 12.015 41.444 10.326 45.797 6.682 47.09 1.638 45.29-4.666 43.782-9.94 40.115-13.6 34.078-15.855 30.39-17.233 26.198-17.955 21.616-18.004" fill="#2b5288"/>
<path transform="matrix(1,0,0,-1,338.4412,304.9609)" d="M0 0H.005ZM-22.22 33.806C-23.159 33.302-24.062 32.714-24.908 32.058-29.417 28.555-31.93 23.864-32.376 18.118-32.884 11.599-31.142 6.31-27.054 1.952-23.681-1.642-18.972-3.792-13.793-4.1-8.717-4.403-3.873-2.879-.147 .18 4.808 4.251 7.181 9.552 7.107 16.385 7.249 20.172 6.132 24 3.875 27.467 1.948 30.431-.405 32.508-3.529 34.004L-3.869 34.187C-6.15 35.436-7.969 34.948-9.726 34.475-10.302 34.321-10.895 34.161-11.492 34.065-11.546 34.056-11.626 34.073-11.676 34.116-11.728 34.158-11.759 34.221-11.76 34.288-11.811 35.675-12.552 37.586-15.804 38.805-15.829 38.814-15.851 38.813-15.869 38.808L-17.84 38.224C-17.887 38.211-17.916 38.167-17.912 38.121-17.909 38.073-17.871 38.034-17.822 38.03-17.65 38.012-13.552 37.549-12.739 34.27-12.723 34.203-12.737 34.132-12.777 34.076-12.818 34.02-12.881 33.985-12.951 33.981-14.022 33.916-15.121 34.138-16.175 34.358-18.09 34.756-20.069 35.169-22.121 33.841-22.152 33.822-22.186 33.81-22.22 33.806M-12.539-4.604C-12.964-4.604-13.392-4.591-13.822-4.566-19.119-4.251-23.938-2.049-27.392 1.633-31.576 6.092-33.358 11.497-32.84 18.154-32.383 24.037-29.811 28.838-25.192 32.427-24.307 33.114-23.359 33.728-22.373 34.253-22.352 34.264-22.328 34.272-22.307 34.277-20.118 35.656-18.067 35.228-16.079 34.814-15.11 34.612-14.205 34.402-13.271 34.435-14.173 37.15-17.833 37.562-17.871 37.566-18.141 37.595-18.351 37.81-18.376 38.078-18.402 38.346-18.231 38.595-17.973 38.671L-16 39.255C-15.885 39.289-15.761 39.286-15.642 39.242-12.21 37.955-11.437 35.861-11.313 34.57-10.827 34.662-10.35 34.79-9.848 34.925-7.997 35.421-6.085 35.934-3.648 34.596L-3.319 34.42C-.124 32.89 2.29 30.76 4.267 27.721 6.575 24.174 7.719 20.252 7.573 16.379 7.648 9.408 5.22 3.987 .147-.18-3.351-3.055-7.816-4.604-12.539-4.604M-12.757 46.878C-29.534 46.872-43.198 32.935-43.225 15.81-43.237 7.445-40.03-.382-34.191-6.23-28.538-11.895-20.785-15.145-12.922-15.145L-12.577-15.143C4.218-15.13 17.88-1.275 17.882 15.743 17.883 24.113 14.71 31.947 8.945 37.802 3.184 43.655-4.524 46.878-12.757 46.878M-12.922-15.611C-20.909-15.611-28.781-12.312-34.522-6.559-40.447-.623-43.705 7.321-43.692 15.81-43.662 33.192-29.79 47.338-12.768 47.344-4.398 47.344 3.427 44.072 9.276 38.13 15.128 32.187 18.351 24.236 18.349 15.743 18.348-1.532 4.474-15.596-12.575-15.609Z" fill="#2b5288"/>
<path transform="matrix(1,0,0,-1,264.2145,350.2949)" d="M0 0 64.485 1.825V-2.332Z" fill="#2b5288"/>
<path transform="matrix(1,0,0,-1,270.4853,350.319)" d="M0 0 58.013-2.098V1.641ZM58.415-2.517 58.207-2.509-6.278-.177-6.276 .227 58.415 2.057Z" fill="#2b5288"/>
<path transform="matrix(1,0,0,-1,549.5648,350.8019)" d="M0 0-64.485-1.825V2.332Z" fill="#2b5288"/>
<path transform="matrix(1,0,0,-1,485.2815,348.6794)" d="M0 0V-3.74L58.013-2.098ZM-.403-4.155V.419L-.194 .411 64.29-1.921 64.288-2.325Z" fill="#2b5288"/>
</g>
</g>
</svg>